<?xml version="1.0" encoding="UTF-8"?>
<svg id="Capa_2" data-name="Capa 2" xmlns="http://www.w3.org/2000/svg" xmlns:xlink="http://www.w3.org/1999/xlink" viewBox="0 0 360.8 148.31">
  <defs>
    <style>
      .cls-1 {
        fill: #fff;
      }

      .cls-2 {
        fill: url(#Degradado_sin_nombre_9-2);
      }

      .cls-3 {
        opacity: .96;
      }

      .cls-4 {
        fill: url(#Degradado_sin_nombre_9);
      }
    </style>
    <linearGradient id="Degradado_sin_nombre_9" data-name="Degradado sin nombre 9" x1="276.33" y1="36.62" x2="355.35" y2="36.62" gradientUnits="userSpaceOnUse">
      <stop offset="0" stop-color="#ffef26"/>
      <stop offset=".03" stop-color="#f4cc31"/>
      <stop offset=".06" stop-color="#eaaa3d"/>
      <stop offset=".09" stop-color="#e29046"/>
      <stop offset=".12" stop-color="#dc7d4c"/>
      <stop offset=".15" stop-color="#d97150"/>
      <stop offset=".19" stop-color="#d86e52"/>
      <stop offset=".58" stop-color="#f49d2b"/>
      <stop offset=".67" stop-color="#f18f34"/>
      <stop offset=".76" stop-color="#f9b700"/>
      <stop offset=".89" stop-color="#e95f32"/>
      <stop offset="1" stop-color="#e3312d"/>
    </linearGradient>
    <linearGradient id="Degradado_sin_nombre_9-2" data-name="Degradado sin nombre 9" x1="0" y1="109.55" x2="360.8" y2="109.55" xlink:href="#Degradado_sin_nombre_9"/>
  </defs>
  <g id="Capa_1-2" data-name="Capa 1">
    <path class="cls-4" d="m354.58,48.63c-.72-2.02-1.86-3.51-3.24-4.61h0c-.57-.45-1.18-.84-1.82-1.16,0,.68-.05,1.38-.15,2.1.6.38,1.16.82,1.66,1.36.73.78,1.34,1.75,1.76,2.94,2.44,6.84-2.67,12.65-5.08,14.91l-1.84-8.77-.39-1.89c-.54,0-1.22,0-1.96-.11l.41,1.95,2.57,12.22,1.19-.88c.43-.32,10.49-7.98,6.9-18.07Zm-8.49-17.14c-1.45-1.19-3.09-2.11-4.83-2.77-1.05-.4-2.14-.71-3.24-.91.8.74,1.46,1.57,1.99,2.46.91.3,1.79.7,2.64,1.17.79.44,1.54.95,2.24,1.52,3.12,2.57,4.67,5.96,4.63,9.91,0,.68-.05,1.38-.15,2.1-.37,2.67-1.41,5.53-3.11,8.52-.2.02-.47.03-.79.04-.54,0-1.22,0-1.96-.11-1.5-.2-3.25-.73-4.5-2-.52-.52-.93-1.15-1.22-1.86-.24-.57-.41-1.2-.49-1.89-.55,0-1.21-.03-1.93-.17.07.7.2,1.37.38,1.98.39,1.28,1.03,2.38,1.92,3.28,1.82,1.83,4.3,2.45,6.25,2.61.07.01.13.02.21.02.67.05,1.26.04,1.74.02.65-.03,1.06-.09,1.13-.1l.44-.06.23-.39c1.73-2.93,2.85-5.8,3.37-8.53.15-.78.25-1.55.31-2.3h0c.36-5-1.4-9.36-5.25-12.53Zm-22.34,38.09c-.99-.07-7.96-.72-20.7-1.93-15.77-1.5-27.49-15.06-26.69-30.88l.36-7.12c.07-1.24.61-2.37,1.54-3.19.92-.82,2.11-1.23,3.35-1.15l14.28.9,17.26,20.26c2.67.08,16.15,1.03,22.08,11.07,2.46,4.16,3.03,7.06,1.76,8.89-1.3,1.87-4.02,1.7-4.87,1.6-1.07.33-5.86,1.75-8.38,1.57Zm-28.78-41.54l-13.48-.85c-.73-.05-1.43.2-1.97.68-.54.48-.86,1.15-.9,1.88l-.36,7.12c-.75,14.8,10.22,27.5,24.97,28.9,12.55,1.19,19.69,1.86,20.66,1.93,2.01.14,6.37-1.07,7.87-1.55l.22-.07.23.04c.67.12,2.54.2,3.22-.78.44-.64.79-2.38-1.84-6.84-5.92-10.01-20.75-10.14-20.9-10.14h-.44s-17.3-20.31-17.3-20.31Zm47.69,3.4c-.35-.96-.81-1.86-1.39-2.72-.72-1.09-1.63-2.1-2.72-2.99-5.89-4.85-15.06-4.91-20.44-.15l-.59.53.42.68c.31.5.59.97.87,1.43,1.94,3.23,3.48,5.81,8.71,9.74-.14,4.24.94,7.38,3.2,9.36,1.59,1.39,3.47,1.95,5.04,2.14.21.02.4.04.59.06.54.04,1.03.03,1.45.02.7-.03,1.16-.12,1.23-.13l.42-.08.22-.37c3.83-6.51,4.81-12.66,3-17.54Zm-4.4,16.18c-.23.02-.56.05-.95.04-.55,0-1.21-.03-1.93-.17-1.12-.22-2.36-.66-3.41-1.58-1.89-1.66-2.74-4.47-2.53-8.36l.03-.51-.42-.31c-5.25-3.88-6.66-6.23-8.61-9.49-.15-.24-.3-.49-.46-.75,4.72-3.59,12.48-3.34,17.37.7.23.19.46.4.68.61.8.74,1.46,1.57,1.99,2.46,2.69,4.46,2.11,10.56-1.77,17.35Zm7.67,7.72l3.95,17.9-22.12-5.94,3.27-.94c.45-.13.72-.22.73-.22l.23-.07.23.04c.66.11,2.54.2,3.22-.78.44-.64.8-2.38-1.84-6.84-5.6-9.46-19.14-10.09-20.67-10.14h-.41s-28.67-31.99-28.67-31.99c-2.28-2.55-2.39-6.15-.24-8.2l7.34-7.02c2.04-1.83,5.36-1.42,7.44.89l19.96,21.95-.71,2.04-20.66-22.72c-1.38-1.54-3.51-1.88-4.74-.77l-7.32,7c-1.38,1.32-1.23,3.81.34,5.56l28.13,31.37c2.88.14,16.08,1.31,21.84,11.05h0c2.46,4.16,3.03,7.06,1.76,8.89-.34.48-.77.83-1.23,1.08l11.59,3.11-3.36-15.21c1.13.15,1.81.15,1.81.15l.12-.2Z"/>
    <g class="cls-3">
      <path class="cls-1" d="m258.96,136.75c-1.38,0-2.7-.2-3.96-.59s-2.26-.91-3.02-1.53l1.14-2.55c.71.56,1.58,1.02,2.63,1.39,1.04.37,2.11.56,3.21.56.93,0,1.68-.1,2.25-.3.57-.2.99-.48,1.26-.82.27-.34.4-.74.4-1.17,0-.54-.19-.97-.58-1.3-.39-.33-.89-.59-1.5-.78-.62-.19-1.3-.37-2.05-.53s-1.5-.36-2.25-.59c-.75-.24-1.44-.54-2.06-.9s-1.12-.85-1.5-1.45c-.38-.61-.57-1.38-.57-2.33s.26-1.84.77-2.64c.51-.8,1.3-1.44,2.35-1.92,1.05-.48,2.39-.72,4.01-.72,1.06,0,2.11.13,3.16.4s1.95.66,2.73,1.16l-1.04,2.55c-.79-.47-1.61-.82-2.45-1.05s-1.65-.34-2.43-.34c-.89,0-1.63.11-2.2.33-.57.22-.99.51-1.25.87-.26.36-.39.76-.39,1.2,0,.54.19.97.57,1.3.38.33.88.58,1.49.77s1.3.36,2.06.53c.76.17,1.51.37,2.25.59.74.23,1.42.52,2.05.88.62.36,1.12.84,1.5,1.44.38.6.57,1.36.57,2.29s-.26,1.82-.77,2.62c-.51.8-1.3,1.44-2.36,1.92-1.06.48-2.4.72-4.02.72Z"/>
      <path class="cls-1" d="m272.96,136.49v-14.91h-5.86v-2.78h15.01v2.78h-5.86v14.91h-3.29Z"/>
      <path class="cls-1" d="m292.16,136.75c-2.41,0-4.3-.68-5.67-2.05-1.37-1.37-2.06-3.34-2.06-5.94v-9.96h3.29v9.86c0,1.82.39,3.14,1.17,3.97s1.89,1.24,3.32,1.24,2.54-.41,3.31-1.24c.77-.83,1.16-2.15,1.16-3.97v-9.86h3.24v9.96c0,2.59-.69,4.57-2.06,5.94-1.37,1.36-3.27,2.05-5.7,2.05Z"/>
      <path class="cls-1" d="m304.55,136.49v-17.69h7.76c1.89,0,3.56.37,5.02,1.1,1.46.73,2.59,1.77,3.4,3.1.81,1.33,1.21,2.88,1.21,4.65s-.4,3.32-1.21,4.65c-.81,1.33-1.94,2.36-3.4,3.1-1.46.73-3.13,1.1-5.02,1.1h-7.76Zm3.29-2.78h4.27c1.33,0,2.48-.25,3.45-.76.97-.5,1.73-1.21,2.27-2.12.55-.91.82-1.97.82-3.18s-.27-2.32-.82-3.21c-.55-.89-1.31-1.59-2.27-2.1-.97-.5-2.12-.76-3.45-.76h-4.27v12.13Z"/>
      <path class="cls-1" d="m325.42,136.49v-17.69h3.29v17.69h-3.29Z"/>
      <path class="cls-1" d="m341.75,136.75c-1.37,0-2.63-.23-3.8-.68s-2.19-1.09-3.04-1.92c-.86-.83-1.53-1.79-2-2.89-.47-1.1-.71-2.3-.71-3.6s.24-2.52.71-3.63c.47-1.1,1.14-2.06,2-2.88.86-.82,1.87-1.45,3.03-1.91,1.16-.46,2.43-.68,3.82-.68s2.63.22,3.79.67c1.16.45,2.17,1.08,3.02,1.89.85.82,1.51,1.78,1.98,2.89.47,1.11.71,2.33.71,3.64s-.24,2.52-.71,3.63c-.47,1.1-1.13,2.07-1.98,2.89-.85.83-1.86,1.46-3.02,1.91-1.16.45-2.43.67-3.79.67Zm0-2.88c.89,0,1.71-.15,2.46-.46.75-.3,1.4-.73,1.96-1.29.56-.56.99-1.21,1.3-1.97.31-.76.47-1.59.47-2.5s-.15-1.74-.46-2.5c-.3-.76-.74-1.42-1.3-1.97-.56-.56-1.22-.99-1.97-1.29-.75-.3-1.57-.46-2.46-.46s-1.72.15-2.49.46c-.77.3-1.43.74-1.98,1.3-.56.57-.99,1.22-1.31,1.97-.32.75-.48,1.58-.48,2.49s.16,1.72.48,2.48c.32.76.76,1.42,1.31,1.98.56.56,1.22,1,1.98,1.3.77.3,1.6.46,2.49.46Z"/>
    </g>
    <g class="cls-3">
      <path class="cls-1" d="m147.11,136.49v-14.91h-5.86v-2.78h15.01v2.78h-5.86v14.91h-3.29Z"/>
      <path class="cls-1" d="m156.23,136.49l7.96-17.69h3.23l7.99,17.69h-3.46l-6.82-15.95h1.31l-6.85,15.95h-3.36Zm3.66-4.09l.91-2.58h9.53l.88,2.58h-11.32Z"/>
      <path class="cls-1" d="m181.22,136.49v-14.91h-5.86v-2.78h15.01v2.78h-5.86v14.91h-3.29Z"/>
      <path class="cls-1" d="m196.43,136.49v-14.91h-5.86v-2.78h15.01v2.78h-5.86v14.91h-3.29Z"/>
      <path class="cls-1" d="m216.35,136.75c-1.36,0-2.63-.23-3.8-.68-1.17-.46-2.19-1.09-3.05-1.92-.86-.83-1.52-1.79-2-2.89-.47-1.1-.71-2.3-.71-3.6s.24-2.52.71-3.63c.47-1.1,1.14-2.06,2-2.88.86-.82,1.87-1.45,3.03-1.91,1.16-.46,2.43-.68,3.82-.68s2.63.22,3.79.67c1.16.45,2.17,1.08,3.02,1.89.85.82,1.51,1.78,1.98,2.89.47,1.11.71,2.33.71,3.64s-.24,2.52-.71,3.63c-.47,1.1-1.13,2.07-1.98,2.89-.85.83-1.86,1.46-3.02,1.91-1.16.45-2.43.67-3.79.67Zm0-2.88c.89,0,1.71-.15,2.46-.46.75-.3,1.4-.73,1.96-1.29.56-.56.99-1.21,1.3-1.97.31-.76.47-1.59.47-2.5s-.15-1.74-.46-2.5c-.3-.76-.74-1.42-1.3-1.97-.57-.56-1.22-.99-1.97-1.29-.75-.3-1.57-.46-2.46-.46s-1.72.15-2.49.46c-.77.3-1.43.74-1.98,1.3-.56.57-.99,1.22-1.31,1.97s-.48,1.58-.48,2.49.16,1.72.48,2.48c.32.76.76,1.42,1.31,1.98.56.56,1.22,1,1.98,1.3.77.3,1.6.46,2.49.46Z"/>
      <path class="cls-1" d="m237.63,136.75c-1.36,0-2.63-.23-3.8-.68-1.17-.46-2.19-1.09-3.05-1.92-.86-.83-1.52-1.79-2-2.89-.47-1.1-.71-2.3-.71-3.6s.24-2.52.71-3.63c.47-1.1,1.14-2.06,2-2.88.86-.82,1.87-1.45,3.03-1.91,1.16-.46,2.43-.68,3.82-.68s2.63.22,3.79.67c1.16.45,2.17,1.08,3.02,1.89.85.82,1.51,1.78,1.98,2.89.47,1.11.71,2.33.71,3.64s-.24,2.52-.71,3.63c-.47,1.1-1.13,2.07-1.98,2.89-.85.83-1.86,1.46-3.02,1.91-1.16.45-2.43.67-3.79.67Zm0-2.88c.89,0,1.71-.15,2.46-.46.75-.3,1.4-.73,1.96-1.29.56-.56.99-1.21,1.3-1.97.31-.76.47-1.59.47-2.5s-.15-1.74-.46-2.5c-.3-.76-.74-1.42-1.3-1.97-.57-.56-1.22-.99-1.97-1.29-.75-.3-1.57-.46-2.46-.46s-1.72.15-2.49.46c-.77.3-1.43.74-1.98,1.3-.56.57-.99,1.22-1.31,1.97s-.48,1.58-.48,2.49.16,1.72.48,2.48c.32.76.76,1.42,1.31,1.98.56.56,1.22,1,1.98,1.3.77.3,1.6.46,2.49.46Z"/>
    </g>
    <path class="cls-1" d="m128.14,109.73v-28.52h5.3v28.52h-5.3Zm12.96,0v-28.52h4.36l17.89,22h-2.16v-22h5.22v28.52h-4.36l-17.85-22h2.16v22h-5.26Zm37.4.41c-1.79,0-3.46-.35-4.99-1.06-1.54-.71-2.79-1.74-3.77-3.1l3.02-3.58c.79,1.09,1.65,1.9,2.59,2.44.94.54,1.98.82,3.12.82,2.93,0,4.4-1.75,4.4-5.26v-14.71h-10.15v-4.48h15.4v18.91c0,3.37-.81,5.88-2.44,7.54-1.63,1.66-4.02,2.49-7.17,2.49Zm22.37-4.89h16.09v4.48h-21.39v-28.52h20.82v4.48h-15.52v19.56Zm-.41-12.18h14.18v4.36h-14.18v-4.36Zm22.45,16.67v-28.52h5.3v28.52h-5.3Zm4.69-6.72l-.24-6.28,14.91-15.52h5.99l-12.43,13.2-2.93,3.22-5.3,5.38Zm15.2,6.72l-10.96-13,3.54-3.87,13.65,16.87h-6.23Zm15.61,0v-24.04h-9.45v-4.48h24.2v4.48h-9.45v24.04h-5.3Zm18.74,0v-28.52h5.3v28.52h-5.3Zm26.32.41c-2.2,0-4.24-.37-6.13-1.1-1.89-.73-3.52-1.77-4.91-3.1s-2.46-2.89-3.22-4.67c-.76-1.78-1.14-3.71-1.14-5.81s.38-4.07,1.14-5.85c.76-1.78,1.83-3.33,3.22-4.65,1.39-1.32,3.01-2.34,4.89-3.08,1.87-.73,3.92-1.1,6.15-1.1s4.24.36,6.11,1.08c1.88.72,3.5,1.74,4.87,3.06,1.37,1.32,2.44,2.87,3.2,4.67.76,1.79,1.14,3.75,1.14,5.87s-.38,4.07-1.14,5.85c-.76,1.78-1.83,3.33-3.2,4.67-1.37,1.33-2.99,2.36-4.87,3.08-1.87.72-3.91,1.08-6.11,1.08Zm0-4.64c1.44,0,2.76-.25,3.97-.73,1.21-.49,2.26-1.18,3.16-2.08.9-.9,1.59-1.96,2.1-3.18.5-1.22.75-2.57.75-4.03s-.24-2.81-.73-4.03c-.49-1.22-1.19-2.28-2.1-3.18s-1.97-1.59-3.18-2.08c-1.21-.49-2.53-.73-3.97-.73s-2.78.24-4.01.73-2.3,1.19-3.2,2.1-1.6,1.97-2.12,3.18c-.52,1.21-.77,2.55-.77,4.01s.26,2.77.77,3.99c.52,1.22,1.22,2.29,2.12,3.2s1.96,1.61,3.2,2.1c1.24.49,2.57.73,4.01.73Zm20.94,4.24v-28.52h4.36l17.89,22h-2.16v-22h5.21v28.52h-4.36l-17.85-22h2.16v22h-5.26Zm-309.49-.69h-5.3v-28.52h20.82v4.48h-15.52v24.04Zm-.41-15.36h14.18v4.4h-14.18v-4.4Zm33.29,15.77c-3.88,0-6.93-1.1-9.15-3.3-2.21-2.2-3.32-5.39-3.32-9.58v-16.05h5.3v15.89c0,2.93.63,5.07,1.9,6.4,1.26,1.33,3.05,2,5.36,2s4.09-.67,5.34-2c1.25-1.33,1.87-3.46,1.87-6.4v-15.89h5.22v16.05c0,4.18-1.11,7.38-3.32,9.58-2.21,2.2-5.28,3.3-9.19,3.3Zm19.96-.41v-28.52h5.3v24.04h14.91v4.48h-20.21Zm24.41,0v-28.52h5.3v24.04h14.91v4.48h-20.21Z"/>
    <path class="cls-2" d="m360.8,148.31h-219.5c-4.96,0-8.99-4.03-8.99-8.99v-19.01H0v-39.81c0-6.45,5.7-9.71,16.95-9.71h321.86c1.1,0,2,.9,2,2s-.9,2-2,2H16.95c-8.59,0-12.95,1.92-12.95,5.71v35.81h132.31v23.01c0,2.75,2.24,4.99,4.99,4.99h215.5v-66.68c0-1.56-1.27-2.84-2.84-2.84-1.1,0-2-.9-2-2s.9-2,2-2c3.77,0,6.84,3.07,6.84,6.84v70.68Z"/>
  </g>
</svg>