<?xml version="1.0" encoding="UTF-8"?>
<svg id="Capa_2" data-name="Capa 2" xmlns="http://www.w3.org/2000/svg" xmlns:xlink="http://www.w3.org/1999/xlink" viewBox="0 0 470.63 193.25">
  <defs>
    <style>
      .cls-1 {
        filter: url(#outer-glow-1);
      }

      .cls-1, .cls-2 {
        opacity: .96;
      }

      .cls-2 {
        filter: url(#outer-glow-2);
      }

      .cls-3 {
        fill: none;
        stroke: #000;
        stroke-linecap: round;
        stroke-miterlimit: 10;
        stroke-width: 2.62px;
      }
    </style>
    <filter id="outer-glow-1" filterUnits="userSpaceOnUse">
      <feOffset dx="0" dy="0"/>
      <feGaussianBlur result="blur" stdDeviation="2.31"/>
      <feFlood flood-color="#f6e81e" flood-opacity=".72"/>
      <feComposite in2="blur" operator="in"/>
      <feComposite in="SourceGraphic"/>
    </filter>
    <filter id="outer-glow-2" filterUnits="userSpaceOnUse">
      <feOffset dx="0" dy="0"/>
      <feGaussianBlur result="blur-2" stdDeviation="2.31"/>
      <feFlood flood-color="#f6e81e" flood-opacity=".72"/>
      <feComposite in2="blur-2" operator="in"/>
      <feComposite in="SourceGraphic"/>
    </filter>
  </defs>
  <g id="Capa_1-2" data-name="Capa 1">
    <g>
      <g>
        <path d="m463.81,63.82c-.95-2.65-2.44-4.61-4.25-6.04h0c-.75-.6-1.55-1.1-2.38-1.52,0,.9-.07,1.81-.2,2.75.79.49,1.52,1.08,2.18,1.78.96,1.03,1.75,2.3,2.31,3.86,3.19,8.97-3.51,16.59-6.68,19.55l-2.41-11.5-.51-2.48c-.71.01-1.61-.01-2.58-.14l.53,2.56,3.36,16.03,1.56-1.16c.56-.42,13.76-10.46,9.06-23.7Z"/>
        <path d="m452.69,41.33c-1.9-1.57-4.05-2.77-6.33-3.64-1.38-.53-2.81-.93-4.25-1.19,1.05.97,1.92,2.06,2.61,3.22,1.19.4,2.35.92,3.46,1.53,1.03.58,2.02,1.24,2.93,1.99,4.08,3.37,6.12,7.82,6.07,13,0,.9-.07,1.81-.2,2.75-.49,3.5-1.85,7.25-4.08,11.17-.26.02-.62.04-1.04.05-.71.01-1.61-.01-2.58-.14-1.97-.27-4.26-.95-5.9-2.63-.68-.69-1.22-1.51-1.6-2.44-.31-.75-.53-1.57-.65-2.48-.72.01-1.59-.04-2.53-.22.09.92.26,1.79.5,2.6.51,1.68,1.35,3.12,2.52,4.3,2.38,2.4,5.64,3.21,8.19,3.43.09.02.18.02.27.03.88.06,1.65.06,2.28.03.85-.04,1.4-.12,1.48-.13l.58-.08.3-.51c2.27-3.84,3.74-7.6,4.43-11.18.2-1.02.33-2.03.41-3.02h0c.47-6.56-1.84-12.28-6.88-16.44Z"/>
        <path d="m423.36,91.28c-1.3-.09-10.44-.95-27.15-2.54-20.69-1.97-36.05-19.77-34.99-40.52l.48-9.34c.09-1.62.81-3.11,2.02-4.19,1.21-1.08,2.77-1.61,4.39-1.51l18.73,1.18,22.62,26.58c3.5.11,21.18,1.36,28.96,14.53,3.22,5.45,3.98,9.27,2.31,11.66-1.71,2.45-5.28,2.23-6.38,2.09-1.41.43-7.68,2.29-10.99,2.06Zm-37.73-54.51l-17.67-1.12c-.95-.06-1.87.26-2.58.89-.71.63-1.13,1.51-1.19,2.46l-.48,9.33c-1,19.42,13.39,36.08,32.74,37.92,16.46,1.57,25.83,2.45,27.09,2.54,2.64.19,8.35-1.4,10.33-2.03l.29-.09.3.05c.87.15,3.34.27,4.23-1.02.58-.84,1.04-3.13-2.41-8.98-7.76-13.14-27.21-13.32-27.4-13.32h-.57s-22.68-26.64-22.68-26.64Z"/>
        <path d="m448.18,41.26c-.46-1.25-1.06-2.44-1.82-3.56-.95-1.43-2.14-2.75-3.57-3.92-7.72-6.37-19.75-6.45-26.81-.21l-.78.69.55.89c.4.65.77,1.28,1.14,1.88,2.54,4.24,4.56,7.62,11.43,12.79-.18,5.56,1.23,9.68,4.19,12.29,2.08,1.83,4.55,2.56,6.61,2.81.27.03.53.06.78.08.71.05,1.35.05,1.9.02.92-.04,1.52-.15,1.61-.17l.55-.11.28-.48c5.03-8.53,6.32-16.61,3.94-23Zm-5.79,21.22c-.3.03-.73.06-1.25.06-.72.01-1.59-.04-2.53-.22-1.47-.28-3.1-.87-4.47-2.07-2.48-2.18-3.59-5.86-3.32-10.96l.04-.66-.54-.4c-6.88-5.1-8.73-8.18-11.29-12.45-.2-.32-.39-.64-.6-.98,6.19-4.71,16.36-4.37,22.78.92.31.25.61.52.89.8,1.05.97,1.92,2.06,2.61,3.22,3.52,5.85,2.77,13.85-2.33,22.75Z"/>
        <path d="m452.28,72.89s-.89-.01-2.37-.2l4.4,19.96-15.2-4.09c.61-.32,1.18-.78,1.62-1.41,1.67-2.4.91-6.21-2.3-11.66h0c-7.55-12.78-24.87-14.32-28.64-14.51l-36.88-41.16c-2.06-2.29-2.26-5.57-.44-7.3l9.6-9.18c1.62-1.45,4.41-1,6.22,1.01l27.09,29.81.93-2.68-26.17-28.8c-2.72-3.03-7.08-3.57-9.75-1.17l-9.63,9.21c-2.82,2.69-2.69,7.41.31,10.75l37.59,41.95h.53c2.01.07,19.77.91,27.11,13.32,3.45,5.85,2.99,8.13,2.41,8.97-.89,1.29-3.36,1.17-4.23,1.02l-.31-.06-.3.1s-.37.12-.96.29l-4.29,1.23,29.02,7.81-5.18-23.48-.16.27Z"/>
      </g>
      <g class="cls-1">
        <path d="m338.36,179.34c-1.81,0-3.54-.26-5.19-.78-1.65-.52-2.97-1.19-3.96-2.01l1.49-3.35c.93.73,2.08,1.34,3.45,1.82,1.37.49,2.77.73,4.21.73,1.21,0,2.2-.13,2.95-.4.75-.26,1.3-.62,1.66-1.08.35-.45.53-.97.53-1.54,0-.71-.25-1.28-.76-1.71s-1.17-.77-1.97-1.03-1.7-.49-2.68-.7-1.97-.47-2.95-.78c-.98-.31-1.88-.7-2.7-1.18s-1.47-1.11-1.97-1.91c-.5-.8-.75-1.81-.74-3.05,0-1.26.34-2.41,1.01-3.46.67-1.05,1.7-1.89,3.08-2.52s3.13-.94,5.25-.94c1.39,0,2.77.18,4.14.53,1.37.36,2.56.86,3.58,1.53l-1.36,3.35c-1.04-.62-2.11-1.08-3.21-1.38s-2.17-.45-3.18-.45c-1.17,0-2.13.14-2.88.43-.75.29-1.3.67-1.64,1.14-.34.48-.51,1-.51,1.57,0,.71.25,1.28.75,1.71.5.43,1.15.77,1.96,1.01.81.24,1.71.48,2.7.7.99.22,1.98.48,2.95.78.97.3,1.87.69,2.68,1.16.82.48,1.47,1.11,1.97,1.89.5.78.75,1.78.74,3,0,1.24-.34,2.38-1.01,3.43s-1.71,1.89-3.1,2.52c-1.39.63-3.15.94-5.27.94Z"/>
        <path d="m356.72,179.02v-19.56s-7.68,0-7.68,0v-3.65s19.69,0,19.69,0v3.65s-7.69,0-7.69,0v19.56s-4.32,0-4.32,0Z"/>
        <path d="m381.91,179.36c-3.16,0-5.64-.9-7.44-2.69-1.8-1.79-2.7-4.39-2.7-7.79v-13.06s4.31,0,4.31,0v12.93c0,2.39.51,4.12,1.53,5.21,1.03,1.08,2.48,1.62,4.36,1.63,1.88,0,3.33-.54,4.34-1.62,1.02-1.08,1.53-2.82,1.53-5.2v-12.93s4.25,0,4.25,0v13.06c0,3.4-.91,6-2.71,7.79-1.8,1.79-4.29,2.68-7.48,2.68Z"/>
        <path d="m398.15,179.03v-23.2s10.19,0,10.19,0c2.47,0,4.67.48,6.58,1.44,1.91.96,3.4,2.32,4.46,4.06,1.06,1.75,1.59,3.78,1.59,6.1s-.53,4.35-1.59,6.1c-1.06,1.75-2.55,3.1-4.46,4.06-1.91.96-4.11,1.44-6.58,1.44h-10.18Zm4.31-3.65h5.6c1.75,0,3.25-.33,4.52-.99,1.27-.66,2.27-1.59,2.98-2.78.72-1.19,1.08-2.58,1.08-4.18,0-1.63-.36-3.04-1.08-4.21-.72-1.17-1.71-2.09-2.98-2.75-1.27-.66-2.78-1-4.52-1h-5.6s0,15.91,0,15.91Z"/>
        <path d="m425.53,179.04v-23.2s4.32,0,4.32,0v23.2s-4.32,0-4.32,0Z"/>
        <path d="m446.94,179.38c-1.79,0-3.45-.3-4.99-.9-1.54-.6-2.87-1.44-3.99-2.52-1.13-1.08-2-2.35-2.62-3.8s-.93-3.02-.93-4.72c0-1.72.31-3.31.93-4.76s1.49-2.71,2.62-3.78c1.13-1.07,2.45-1.9,3.98-2.5,1.52-.6,3.19-.89,5-.89,1.79,0,3.45.29,4.97.88,1.52.59,2.84,1.42,3.96,2.49s1.98,2.34,2.6,3.8c.62,1.46.93,3.05.93,4.77,0,1.72-.31,3.31-.93,4.76s-1.49,2.71-2.6,3.79-2.44,1.92-3.96,2.5c-1.53.58-3.18.88-4.97.88Zm0-3.78c1.17,0,2.25-.2,3.23-.6.98-.4,1.84-.96,2.57-1.69.73-.73,1.3-1.59,1.71-2.58.41-1,.61-2.09.61-3.28,0-1.19-.2-2.29-.6-3.28-.4-.99-.97-1.86-1.71-2.59s-1.6-1.29-2.58-1.69c-.98-.4-2.06-.6-3.23-.6-1.17,0-2.26.2-3.27.6-1.01.4-1.87.97-2.6,1.71-.73.74-1.3,1.6-1.72,2.58-.42.98-.63,2.07-.63,3.26,0,1.17.21,2.25.63,3.25.42.99.99,1.86,1.72,2.6.73.74,1.6,1.31,2.6,1.71,1,.4,2.09.6,3.26.6Z"/>
      </g>
      <g class="cls-2">
        <path d="m191.65,178.95v-19.56s-7.68,0-7.68,0v-3.65s19.69,0,19.69,0v3.65s-7.69,0-7.69,0v19.56s-4.32,0-4.32,0Z"/>
        <path d="m203.61,178.95l10.45-23.2h4.24s10.46,23.21,10.46,23.21h-4.54s-8.94-20.92-8.94-20.92h1.72s-8.99,20.91-8.99,20.91h-4.41Zm4.81-5.37l1.19-3.38h12.5s1.16,3.39,1.16,3.39h-14.85Z"/>
        <path d="m236.39,178.97v-19.56s-7.68,0-7.68,0v-3.65s19.69,0,19.69,0v3.65s-7.69,0-7.69,0v19.56s-4.32,0-4.32,0Z"/>
        <path d="m256.35,178.98v-19.56s-7.68,0-7.68,0v-3.65s19.69,0,19.69,0v3.65s-7.69,0-7.69,0v19.56s-4.32,0-4.32,0Z"/>
        <path d="m282.47,179.32c-1.79,0-3.45-.3-4.99-.9-1.54-.6-2.87-1.44-3.99-2.52s-2-2.35-2.62-3.8c-.62-1.45-.93-3.02-.93-4.72,0-1.72.31-3.31.93-4.75.62-1.45,1.49-2.71,2.62-3.78,1.13-1.07,2.45-1.9,3.98-2.5,1.53-.6,3.19-.89,5.01-.89,1.79,0,3.45.29,4.97.88,1.52.58,2.84,1.42,3.96,2.49,1.12,1.07,1.98,2.34,2.6,3.8.62,1.46.93,3.05.93,4.77s-.31,3.31-.93,4.76c-.62,1.45-1.49,2.71-2.6,3.79-1.12,1.08-2.44,1.92-3.96,2.5-1.52.58-3.18.88-4.97.88Zm0-3.78c1.17,0,2.25-.2,3.23-.59.98-.4,1.84-.96,2.57-1.69s1.3-1.59,1.71-2.58c.41-1,.61-2.09.62-3.28,0-1.19-.2-2.29-.6-3.28-.4-1-.97-1.86-1.71-2.59-.74-.73-1.6-1.29-2.58-1.69-.98-.4-2.06-.6-3.23-.6-1.17,0-2.26.2-3.26.6-1.01.4-1.87.97-2.6,1.71-.73.74-1.3,1.6-1.72,2.58-.42.98-.63,2.07-.63,3.26,0,1.17.21,2.25.63,3.25.42.99.99,1.86,1.72,2.6.73.74,1.6,1.31,2.6,1.71,1.01.4,2.09.6,3.26.6Z"/>
        <path d="m310.38,179.33c-1.79,0-3.45-.3-4.99-.9-1.54-.6-2.87-1.44-3.99-2.52-1.13-1.08-2-2.35-2.62-3.8-.62-1.45-.93-3.02-.93-4.72,0-1.72.31-3.31.93-4.76.62-1.45,1.49-2.71,2.62-3.78,1.13-1.07,2.45-1.9,3.98-2.5,1.53-.6,3.19-.89,5.01-.89,1.79,0,3.45.29,4.97.88s2.84,1.42,3.96,2.49c1.12,1.07,1.98,2.34,2.6,3.8.62,1.46.93,3.05.93,4.77s-.31,3.31-.93,4.76c-.62,1.45-1.49,2.71-2.6,3.79-1.12,1.08-2.44,1.92-3.96,2.5-1.52.58-3.18.88-4.97.88Zm0-3.78c1.17,0,2.25-.2,3.23-.59.98-.4,1.84-.96,2.57-1.69.73-.73,1.3-1.59,1.71-2.58s.61-2.09.62-3.28c0-1.19-.2-2.29-.6-3.28-.4-.99-.97-1.86-1.71-2.58-.74-.73-1.6-1.29-2.58-1.69-.98-.4-2.06-.6-3.23-.6-1.17,0-2.26.2-3.26.6-1.01.4-1.87.97-2.6,1.71-.73.74-1.3,1.6-1.72,2.58-.42.98-.63,2.07-.63,3.26,0,1.17.21,2.25.63,3.25.42.99.99,1.86,1.72,2.6.73.74,1.6,1.31,2.6,1.71,1.01.4,2.09.6,3.26.6Z"/>
      </g>
      <path d="m166.77,143.83l.02-37.41h6.95s-.02,37.41-.02,37.41h-6.95Zm16.99,0l.02-37.41h5.72s23.45,28.87,23.45,28.87h-2.83s.01-28.86.01-28.86h6.84s-.02,37.41-.02,37.41h-5.72s-23.4-28.87-23.4-28.87h2.83s-.01,28.86-.01,28.86h-6.89Zm49.06.55c-2.35,0-4.53-.47-6.55-1.39-2.01-.93-3.66-2.28-4.94-4.06l3.96-4.7c1.03,1.43,2.16,2.49,3.39,3.21,1.23.71,2.59,1.07,4.09,1.07,3.85,0,5.77-2.3,5.77-6.89v-19.29s-13.3,0-13.3,0v-5.88s20.2,0,20.2,0v24.8c-.01,4.42-1.08,7.71-3.22,9.89-2.14,2.17-5.27,3.26-9.41,3.26Zm29.34-6.4h21.11s0,5.89,0,5.89h-28.06s.02-37.42.02-37.42h27.31s0,5.89,0,5.89h-20.36s-.01,25.64-.01,25.64Zm-.53-15.98h18.6s0,5.73,0,5.73h-18.6s0-5.73,0-5.73Zm29.44,21.87l.02-37.41h6.95s-.02,37.41-.02,37.41h-6.95Zm6.15-8.82l-.32-8.23,19.57-20.35h7.86s-16.31,17.31-16.31,17.31l-3.85,4.22-6.95,7.05Zm19.93,8.83l-14.37-17.05,4.65-5.07,17.89,22.13h-8.18Zm20.47,0v-31.53s-12.39,0-12.39,0v-5.88s31.75.01,31.75.01v5.88s-12.4,0-12.4,0v31.53s-6.96,0-6.96,0Zm24.58.01l.02-37.41h6.95s-.02,37.41-.02,37.41h-6.95Zm34.52.55c-2.89,0-5.57-.48-8.04-1.45-2.48-.96-4.62-2.32-6.44-4.06s-3.22-3.79-4.22-6.12c-1-2.33-1.49-4.87-1.49-7.62s.5-5.33,1.5-7.67c1-2.33,2.41-4.36,4.22-6.09,1.82-1.73,3.96-3.07,6.42-4.03,2.46-.96,5.15-1.44,8.07-1.44s5.56.47,8.02,1.42c2.46.95,4.59,2.28,6.38,4.01,1.8,1.73,3.2,3.77,4.19,6.12,1,2.35,1.49,4.92,1.49,7.7,0,2.78-.5,5.34-1.5,7.67-1,2.33-2.4,4.37-4.2,6.12-1.8,1.75-3.93,3.09-6.39,4.03-2.46.94-5.13,1.41-8.02,1.41Zm0-6.09c1.89,0,3.63-.32,5.21-.96,1.58-.64,2.97-1.55,4.14-2.72,1.18-1.18,2.09-2.56,2.75-4.17.66-1.6.99-3.37.99-5.29s-.32-3.69-.96-5.29c-.64-1.6-1.56-2.99-2.75-4.17s-2.58-2.09-4.17-2.73c-1.59-.64-3.32-.96-5.21-.96-1.89,0-3.64.32-5.26.96-1.62.64-3.02,1.56-4.2,2.75s-2.1,2.58-2.78,4.17c-.68,1.59-1.02,3.34-1.02,5.26s.34,3.63,1.01,5.24c.68,1.6,1.6,3,2.78,4.2s2.57,2.11,4.19,2.75c1.62.64,3.37.96,5.26.96Zm27.47,5.57l.02-37.41h5.72s23.45,28.87,23.45,28.87h-2.83s.01-28.86.01-28.86h6.84s-.02,37.41-.02,37.41h-5.72s-23.39-28.87-23.39-28.87h2.83s-.01,28.86-.01,28.86h-6.89Zm-405.93-1.07h-6.95s.02-37.41.02-37.41h27.31s0,5.89,0,5.89h-20.36s-.01,31.52-.01,31.52Zm-.53-20.15h18.6s0,5.78,0,5.78h-18.6s0-5.78,0-5.78Zm43.65,20.7c-5.1,0-9.09-1.45-12-4.33-2.9-2.89-4.35-7.07-4.35-12.56v-21.06s6.96,0,6.96,0v20.84c-.01,3.85.82,6.65,2.47,8.39,1.66,1.75,4,2.62,7.03,2.62,3.03,0,5.36-.87,7-2.62,1.64-1.74,2.46-4.54,2.46-8.39v-20.84s6.85,0,6.85,0v21.06c-.01,5.49-1.46,9.67-4.37,12.56-2.91,2.88-6.92,4.33-12.05,4.32Zm26.19-.52l.02-37.41h6.95s-.01,31.53-.01,31.53h19.56s0,5.89,0,5.89h-26.51Zm32.01,0l.02-37.41h6.95s-.01,31.53-.01,31.53h19.56s0,5.89,0,5.89h-26.51Z"/>
      <path class="cls-3" d="m462.98,95.51c3.5,0,6.35,2.84,6.34,6.35l-.04,90.08-285.29-.12c-5.06,0-9.16-4.11-9.16-9.17v-27.56s-173.53-.07-173.53-.07l.02-49.59c0-5.59,4.53-10.12,19.61-10.11l422.16.18"/>
    </g>
  </g>
</svg>